<svg width="52" height="52" viewBox="0 0 52 52" fill="none" xmlns="http://www.w3.org/2000/svg">
<rect width="51.9603" height="51.9417" rx="25.9708" fill="#C9FFEC"/>
<path d="M35.3702 22.6108C35.3702 22.6108 35.3702 22.6108 35.3702 22.5608C34.6656 20.6371 33.3871 18.9761 31.7076 17.8027C30.0282 16.6293 28.0289 16 25.9802 16C23.9314 16 21.9321 16.6293 20.2527 17.8027C18.5732 18.9761 17.2948 20.6371 16.5902 22.5608C16.5902 22.5608 16.5902 22.5608 16.5902 22.6108C15.8033 24.7817 15.8033 27.1599 16.5902 29.3308C16.5902 29.3308 16.5902 29.3308 16.5902 29.3808C17.2948 31.3046 18.5732 32.9655 20.2527 34.139C21.9321 35.3124 23.9314 35.9417 25.9802 35.9417C28.0289 35.9417 30.0282 35.3124 31.7076 34.139C33.3871 32.9655 34.6656 31.3046 35.3702 29.3808C35.3702 29.3808 35.3702 29.3808 35.3702 29.3308C36.157 27.1599 36.157 24.7817 35.3702 22.6108ZM18.2202 27.9708C17.8734 26.66 17.8734 25.2816 18.2202 23.9708H20.0802C19.9202 25.2994 19.9202 26.6423 20.0802 27.9708H18.2202ZM19.0402 29.9708H20.4402C20.6749 30.8627 21.0104 31.7249 21.4402 32.5408C20.4595 31.8728 19.6397 30.9949 19.0402 29.9708ZM20.4402 21.9708H19.0402C19.631 20.9499 20.4403 20.0723 21.4102 19.4008C20.9907 20.2181 20.6653 21.0802 20.4402 21.9708ZM24.9602 33.6708C23.7319 32.7695 22.8693 31.4561 22.5302 29.9708H24.9602V33.6708ZM24.9602 27.9708H22.1002C21.9135 26.644 21.9135 25.2976 22.1002 23.9708H24.9602V27.9708ZM24.9602 21.9708H22.5302C22.8693 20.4856 23.7319 19.1721 24.9602 18.2708V21.9708ZM32.8802 21.9708H31.4802C31.2454 21.079 30.9099 20.2168 30.4802 19.4008C31.4609 20.0689 32.2807 20.9468 32.8802 21.9708ZM26.9602 18.2708C28.1884 19.1721 29.051 20.4856 29.3902 21.9708H26.9602V18.2708ZM26.9602 33.6708V29.9708H29.3902C29.051 31.4561 28.1884 32.7695 26.9602 33.6708ZM29.8202 27.9708H26.9602V23.9708H29.8202C30.0068 25.2976 30.0068 26.644 29.8202 27.9708ZM30.5102 32.5408C30.9399 31.7249 31.2754 30.8627 31.5102 29.9708H32.9102C32.3107 30.9949 31.4909 31.8728 30.5102 32.5408ZM33.7002 27.9708H31.8402C31.9215 27.3073 31.9616 26.6393 31.9602 25.9708C31.9613 25.3023 31.9212 24.6344 31.8402 23.9708H33.7002C34.0469 25.2816 34.0469 26.66 33.7002 27.9708Z" fill="#056652"/>
</svg>
