<svg width="628" height="945" viewBox="0 0 628 945" fill="none" xmlns="http://www.w3.org/2000/svg">
<path d="M490.173 62.6187C520.513 82.9027 541.889 93.5906 521.375 156.396C521.375 156.396 506.148 199.55 488.507 254.598C479.274 256.216 470.609 260.173 463.339 266.09C488.105 186.563 508.906 126.056 507.239 122.436C502.585 112.323 447.767 97.8427 378.583 77.3864C309.399 56.93 248.949 33.2558 231.596 40.3811C222.632 44.1735 213.84 92.0966 198.211 149.558C191.832 172.543 182.351 202.768 172.755 232.705C171.079 230.095 169.257 227.582 167.296 225.178C164.448 221.69 161.166 218.581 157.528 215.926C160.861 205.009 164.136 194.321 167.239 184.035C174.594 159.844 181.202 137.664 186.661 118.816C194.188 93.2458 199.532 73.8237 201.773 64.2276C214.817 6.88093 239.411 -1.33608 291.586 0.15792C339.164 1.88177 459.834 42.3348 490.173 62.6187Z" fill="#363537"/>
<path d="M507.24 122.379C508.906 125.885 488.105 186.392 463.339 266.034C457.911 270.261 453.147 275.278 449.204 280.916C430.644 306.889 434.091 343.032 434.264 361.362C432.597 367.109 430.988 372.855 429.379 378.141C394.902 498.006 369.619 609.367 361.517 613.734C344.911 622.813 98.6302 551.79 87.5976 537.999C83.6327 533.058 83.4604 526.852 88.1722 514.038C93.9817 514.969 99.9359 514.245 105.353 511.948C110.769 509.651 115.43 505.875 118.799 501.052C132.073 482.262 124.201 472.321 109.318 453.933C107.939 452.209 106.56 450.428 105.296 448.647C110.64 430.891 116.788 411.641 122.534 392.047C122.973 391.974 123.398 391.838 123.798 391.645C157.241 379.405 158.275 356.823 148.737 340.619C146.668 336.941 144.312 333.034 141.669 329.126C144.197 320.794 147.415 310.624 151.093 299.246V298.557C155.739 297.354 160.162 295.414 164.194 292.811C172.914 285.797 178.631 275.722 180.179 264.639C181.727 253.556 178.99 242.3 172.526 233.165C182.122 203.228 191.603 173.233 197.981 150.018C213.611 92.5568 222.403 44.4039 231.367 40.8413C248.605 33.4862 309.112 56.988 378.353 77.6168C447.595 98.2455 502.586 112.324 507.24 122.379Z" fill="#DEF5F9"/>
<path d="M434.322 364.924C433.919 381.186 445.814 401.067 435.298 443.589C434.954 444.911 434.666 446.232 434.322 447.439C430.293 464.725 425.384 481.795 419.611 498.58C392.892 575.808 389.674 615.744 380.135 638.269C368.643 665.333 339.28 676.021 280.899 659.07C219.645 641.314 123.397 618.847 91.6778 599.54C59.959 580.233 51.0524 565.063 58.8672 533.861L66.5671 509.325C73.5637 511.722 80.8135 513.303 88.1727 514.037C83.4608 526.851 83.6332 533.057 87.598 537.998C98.6307 551.789 344.911 622.812 361.518 613.733C369.62 609.251 394.731 497.89 429.38 378.14C430.989 372.394 432.598 366.648 434.264 361.361C434.363 362.546 434.382 363.736 434.322 364.924Z" fill="#363537"/>
<path d="M186.661 119.275C180.915 138.123 174.594 160.303 167.239 184.494H166.262C166.262 184.494 135.923 150.535 157.643 128.814C166.033 120.482 185.742 119.333 185.742 119.333L186.661 119.275Z" fill="#FEA996"/>
<path d="M157.529 216.385C161.166 219.039 164.449 222.148 167.297 225.637C169.179 228.046 170.925 230.559 172.526 233.164C179.104 242.336 181.902 253.687 180.34 264.866C178.779 276.044 172.977 286.194 164.137 293.211C160.105 295.815 155.682 297.755 151.035 298.958C144.887 300.507 138.451 300.507 132.303 298.958C130.924 303.21 129.602 307.462 128.338 311.714C122.825 305.18 116.49 299.385 109.491 294.476C106.703 292.599 103.716 291.038 100.584 289.821V289.362C100.584 289.362 73.8643 253.333 97.8259 223.74C104.863 214.985 115.036 209.319 126.184 207.946C137.333 206.573 148.577 209.6 157.529 216.385Z" fill="#FEA996"/>
<path d="M151.208 299.246C147.588 310.738 144.313 320.794 141.784 329.126C137.695 322.957 133.203 317.064 128.338 311.485C129.603 307.233 130.924 302.981 132.303 298.729C138.451 300.278 144.888 300.278 151.036 298.729L151.208 299.246Z" fill="#F2F2F2"/>
<path d="M122.649 392.047C116.616 411.641 110.64 430.891 105.411 448.647C100.756 442.153 96.734 435.316 91.7349 429.282C95.1251 418.537 98.6303 407.217 102.308 395.495C109.244 395.62 116.142 394.451 122.649 392.047Z" fill="#F2F2F2"/>
<path d="M102.251 395.436C98.573 406.928 95.0678 418.421 91.6776 429.223C85.8343 421.428 77.6327 415.725 68.2907 412.962V412.445C65.7414 403.793 62.3743 395.404 58.2349 387.391C47.4896 367.05 36.2846 360.499 32.7794 343.088C29.2742 325.678 36.5144 307.29 54.8447 295.051C61.4054 290.434 69.0165 287.533 76.9851 286.609C84.9538 285.686 93.0268 286.77 100.469 289.764C103.601 290.981 106.588 292.542 109.376 294.418C116.375 299.328 122.71 305.122 128.223 311.657C133.088 317.235 137.58 323.128 141.669 329.298C144.312 333.148 146.668 337.055 148.737 340.79C158.046 356.994 157.241 379.577 123.799 391.816C123.399 392.01 122.973 392.145 122.534 392.218C116.031 394.537 109.153 395.628 102.251 395.436Z" fill="#FEA996"/>
<path d="M105.296 448.646C106.56 450.427 107.939 452.208 109.318 453.932C124.201 472.262 132.303 482.261 118.799 501.051C115.43 505.874 110.77 509.65 105.353 511.947C99.9361 514.244 93.9819 514.968 88.1724 514.037C80.8133 513.303 73.5635 511.722 66.5669 509.325L58.867 533.861C51.0522 564.948 59.9588 580.118 91.6776 599.54C123.396 618.962 219.645 641.315 280.899 659.07C339.28 676.309 368.643 665.334 380.135 638.269C389.674 615.744 392.892 575.808 419.611 498.58C425.383 481.795 430.293 464.726 434.321 447.439C434.666 446.232 434.953 444.911 435.298 443.589C445.814 401.067 433.919 381.186 434.321 364.924C434.406 363.7 434.406 362.471 434.321 361.247C434.321 342.916 430.701 306.773 449.261 280.8C453.204 275.162 457.969 270.146 463.397 265.918C470.667 260 479.332 256.044 488.565 254.425C494.827 253.096 501.349 253.8 507.183 256.437C509.614 257.595 511.623 259.483 512.929 261.838C512.929 261.838 514.308 305.681 518.675 337.457C526.432 390.954 547.406 414.973 540.51 448.991C533.615 483.008 524.996 577.819 524.996 577.819C517.526 626.26 476.843 690.387 459.834 739.287C459.834 739.287 421.852 812.953 441.447 872.943C461.041 932.932 474.487 944.827 474.487 944.827H223.839C220.829 919.756 215.285 895.056 207.29 871.104C195.511 839.098 129.717 797.151 97.826 744.975C75.8182 708.889 64.843 633.787 48.2941 589.829C37.4913 560.983 0.888197 498.12 0.141196 467.263C-0.605805 436.406 18.5289 410.204 53.1783 410.893C58.2686 410.932 63.3313 411.647 68.2332 413.02C77.5753 415.783 85.7769 421.486 91.6201 429.281C96.6193 435.315 100.642 442.153 105.296 448.646Z" fill="#FEA996"/>
<path d="M242.515 816.975C240.734 816.975 219.53 831.685 218.266 830.421C215.278 827.778 256.823 784.452 290.84 775.603C307.217 771.465 294.345 740.264 301.7 739.919C315.434 739.287 313.767 759.456 343.475 761.467C362.84 762.846 402.316 753.825 406.683 745.32C427.656 705.097 485.061 614.25 493.68 572.189C499.517 548.769 503.172 524.858 504.598 500.764C505.574 479.445 506.436 449.91 508.39 432.959C509.654 421.984 491.152 333.608 502.127 302.349C502.099 321.743 503.598 341.11 506.609 360.27C508.218 369.177 510.574 377.853 512.872 386.3C517.124 401.815 521.146 416.525 519.595 430.258C517.699 446.75 516.779 466.689 515.745 487.72C514.309 518.864 512.815 550.928 507.93 574.947C498.909 619.077 449.09 714.751 427.829 755.606C423.519 763.996 420.646 770.259 418.865 773.189C406.338 793.416 358.415 784.05 313.94 790.428C288.794 795.146 264.638 804.124 242.515 816.975Z" fill="#FE5C6A"/>
<path d="M341.866 608.275L481.095 135.883C481.461 134.648 481.321 133.319 480.707 132.188C480.093 131.056 479.054 130.215 477.82 129.849C476.585 129.484 475.256 129.623 474.125 130.238C472.993 130.852 472.152 131.89 471.786 133.125L332.27 606.609L337.154 607.471L341.866 608.275Z" fill="#B7E5EA"/>
</svg>
