<svg width="51" height="50" viewBox="0 0 51 50" fill="none" xmlns="http://www.w3.org/2000/svg">
<rect width="50.0282" height="50.0009" rx="25.0004" fill="#E9CCFF"/>
<path d="M25.0282 24C24.763 24 24.5086 24.1054 24.3211 24.2929C24.1335 24.4804 24.0282 24.7348 24.0282 25V28C24.0282 28.2652 24.1335 28.5196 24.3211 28.7071C24.5086 28.8946 24.763 29 25.0282 29C25.2934 29 25.5478 28.8946 25.7353 28.7071C25.9228 28.5196 26.0282 28.2652 26.0282 28V25C26.0282 24.7348 25.9228 24.4804 25.7353 24.2929C25.5478 24.1054 25.2934 24 25.0282 24ZM25.0282 21C24.8304 21 24.6371 21.0586 24.4726 21.1685C24.3082 21.2784 24.18 21.4346 24.1043 21.6173C24.0286 21.8 24.0088 22.0011 24.0474 22.1951C24.086 22.3891 24.1812 22.5673 24.3211 22.7071C24.4609 22.847 24.6391 22.9422 24.8331 22.9808C25.0271 23.0194 25.2281 22.9996 25.4109 22.9239C25.5936 22.8482 25.7498 22.72 25.8597 22.5556C25.9695 22.3911 26.0282 22.1978 26.0282 22C26.0282 21.7348 25.9228 21.4804 25.7353 21.2929C25.5478 21.1054 25.2934 21 25.0282 21ZM25.0282 15C23.715 15 22.4146 15.2587 21.2014 15.7612C19.9881 16.2638 18.8857 17.0003 17.9571 17.9289C16.0818 19.8043 15.0282 22.3478 15.0282 25C15.0194 27.3091 15.819 29.5485 17.2882 31.33L15.2882 33.33C15.1494 33.4706 15.0554 33.6492 15.0181 33.8432C14.9807 34.0372 15.0016 34.2379 15.0782 34.42C15.1612 34.5999 15.2959 34.7511 15.465 34.8544C15.6342 34.9577 15.8302 35.0083 16.0282 35H25.0282C27.6804 35 30.2239 33.9464 32.0993 32.0711C33.9746 30.1957 35.0282 27.6522 35.0282 25C35.0282 22.3478 33.9746 19.8043 32.0993 17.9289C30.2239 16.0536 27.6804 15 25.0282 15ZM25.0282 33H18.4382L19.3682 32.07C19.4627 31.9774 19.5378 31.8669 19.5893 31.7451C19.6408 31.6232 19.6676 31.4923 19.6682 31.36C19.6644 31.0962 19.5566 30.8446 19.3682 30.66C18.0588 29.352 17.2434 27.6305 17.0609 25.7888C16.8784 23.947 17.3401 22.099 18.3674 20.5595C19.3947 19.02 20.924 17.8844 22.6947 17.346C24.4654 16.8076 26.368 16.8998 28.0784 17.6069C29.7888 18.314 31.201 19.5923 32.0746 21.2239C32.9482 22.8555 33.2291 24.7395 32.8693 26.555C32.5096 28.3705 31.5315 30.005 30.1017 31.1802C28.672 32.3554 26.8789 32.9985 25.0282 33Z" fill="#6400B3"/>
</svg>
