<svg width="605" height="731" viewBox="0 0 605 731" fill="none" xmlns="http://www.w3.org/2000/svg">
<path d="M139.4 236.822C204.52 236.822 257.311 184.032 257.311 118.911C257.311 53.7906 204.52 1 139.4 1C74.2793 1 21.4888 53.7906 21.4888 118.911C21.4888 184.032 74.2793 236.822 139.4 236.822Z" fill="#FFF799" stroke="white" stroke-width="2" stroke-linecap="round" stroke-linejoin="round"/>
<path d="M177.978 24.7411C209.038 40.5681 230.735 76.1788 230.735 117.988C230.735 159.798 209.038 195.673 177.978 211.236C214.644 202.069 242.209 163.755 242.209 117.988C242.209 72.2221 214.908 33.9735 177.978 24.7411Z" fill="#EFE370"/>
<path d="M13.1139 547.229C46.0868 512.08 82.357 525.862 131.223 533.314C173.164 539.909 214.446 527.907 211.743 505.353C207.39 468.621 201.323 452.201 187.409 404.654C176.198 366.867 155.161 298.811 136.037 233.788C110.318 146.674 103.064 106.249 137.026 96.0936C173.956 85.3445 195.058 137.771 214.249 210.312C236.077 292.942 247.221 329.542 253.816 327.629C265.159 324.332 249.793 288.919 279.337 280.28C316.399 269.465 323.587 298.481 333.874 295.514C344.162 292.546 340.469 263.068 370.342 254.429C400.216 245.791 414.856 282.522 427.122 278.763C439.387 275.005 438.86 262.013 457.259 256.804C475.658 251.594 544.571 282.193 584.007 417.118C603.79 485.635 606.824 531.6 604.186 565.826C601.634 598.548 589.824 629.87 570.137 656.132C550.449 682.394 523.696 702.512 493.001 714.138L490.166 715.193C434.44 736.606 372.683 736.182 317.256 714.006C294.679 706.078 272.65 696.671 251.31 685.847C201.851 658.018 168.416 603.81 39.6241 606.712C-8.91201 607.767 -6.53796 569.057 13.2458 547.361L13.1139 547.229Z" fill="#FEA996"/>
<path d="M460.49 286.347C463.566 284.157 467.284 283.053 471.056 283.208C474.829 283.363 478.443 284.769 481.329 287.204C501.113 304.548 543.186 344.379 569.103 443.1C599.9 560.088 570.092 617.856 570.092 617.856C574.713 541.027 561.721 464.157 532.107 393.113C511.268 344.313 460.49 286.347 460.49 286.347Z" fill="#FE5C6A"/>
</svg>
