<svg width="52" height="52" viewBox="0 0 52 52" fill="none" xmlns="http://www.w3.org/2000/svg">
<rect width="51.9947" height="51.9944" rx="25.9972" fill="#CCE3FF"/>
<path d="M32.4284 23.2044C31.8167 21.8002 30.7614 20.6354 29.4242 19.8886C28.087 19.1417 26.5417 18.8541 25.0253 19.0697C23.5089 19.2854 22.1051 19.9924 21.0292 21.0825C19.9532 22.1725 19.2644 23.5854 19.0684 25.1044C18.115 25.3327 17.2787 25.9033 16.7182 26.7076C16.1577 27.512 15.9121 28.4941 16.0281 29.4676C16.1441 30.4411 16.6135 31.3381 17.3473 31.9883C18.0811 32.6384 19.0281 32.9965 20.0084 32.9944H31.0084C32.2078 32.9911 33.366 32.5568 34.2718 31.7707C35.1776 30.9846 35.7707 29.8991 35.9429 28.7122C36.115 27.5252 35.8548 26.3159 35.2097 25.3049C34.5645 24.2938 33.5774 23.5483 32.4284 23.2044ZM31.0084 30.9944H20.0084C19.478 30.9944 18.9693 30.7837 18.5942 30.4086C18.2191 30.0336 18.0084 29.5249 18.0084 28.9944C18.0084 28.464 18.2191 27.9553 18.5942 27.5802C18.9693 27.2051 19.478 26.9944 20.0084 26.9944C20.2737 26.9944 20.528 26.8891 20.7155 26.7015C20.9031 26.514 21.0084 26.2596 21.0084 25.9944C21.011 24.8117 21.4327 23.6682 22.1987 22.767C22.9647 21.8658 24.0253 21.2654 25.1922 21.0723C26.359 20.8792 27.5566 21.106 28.572 21.7124C29.5874 22.3188 30.355 23.2656 30.7384 24.3844C30.7971 24.5544 30.9005 24.7054 31.0378 24.8216C31.175 24.9377 31.3411 25.0147 31.5184 25.0444C32.2514 25.1797 32.9078 25.5829 33.3598 26.1757C33.8117 26.7684 34.0268 27.5082 33.9631 28.2508C33.8995 28.9935 33.5616 29.6858 33.0154 30.193C32.4692 30.7002 31.7538 30.9859 31.0084 30.9944Z" fill="#0040F2"/>
</svg>
