<svg width="21" height="14" viewBox="0 0 21 14" fill="none" xmlns="http://www.w3.org/2000/svg">
<path d="M16.5486 4.20442C15.9369 2.80023 14.8815 1.63542 13.5443 0.888575C12.2071 0.141735 10.6618 -0.145911 9.14543 0.069742C7.62905 0.285395 6.22525 0.992442 5.14927 2.08248C4.07329 3.17251 3.38451 4.58537 3.18855 6.10442C2.23514 6.33274 1.39877 6.90325 0.83829 7.70761C0.277806 8.51196 0.0322365 9.49415 0.148216 10.4676C0.264196 11.4411 0.733647 12.3381 1.46742 12.9883C2.20119 13.6384 3.14818 13.9965 4.12855 13.9944H15.1286C16.3279 13.9911 17.4861 13.5568 18.3919 12.7707C19.2978 11.9846 19.8908 10.8991 20.063 9.71216C20.2352 8.52522 19.9749 7.31594 19.3298 6.30488C18.6846 5.29382 17.6975 4.54834 16.5486 4.20442ZM15.1286 11.9944H4.12855C3.59812 11.9944 3.08941 11.7837 2.71434 11.4086C2.33927 11.0336 2.12855 10.5249 2.12855 9.99442C2.12855 9.46399 2.33927 8.95528 2.71434 8.5802C3.08941 8.20513 3.59812 7.99442 4.12855 7.99442C4.39377 7.99442 4.64812 7.88906 4.83566 7.70152C5.0232 7.51399 5.12855 7.25963 5.12855 6.99442C5.13111 5.8117 5.55284 4.66817 6.31882 3.767C7.08481 2.86583 8.14544 2.26537 9.3123 2.07229C10.4792 1.87921 11.6767 2.10602 12.6921 2.71243C13.7076 3.31883 14.4752 4.26556 14.8586 5.38442C14.9172 5.55439 15.0206 5.70541 15.1579 5.82156C15.2952 5.93771 15.4612 6.0147 15.6386 6.04442C16.3715 6.17967 17.0279 6.58295 17.4799 7.17569C17.9318 7.76842 18.1469 8.50817 18.0832 9.25082C18.0196 9.99346 17.6817 10.6858 17.1355 11.193C16.5893 11.7002 15.8739 11.9859 15.1286 11.9944Z" fill="#001999"/>
</svg>
