<svg width="55" height="60" viewBox="0 0 55 60" fill="none" xmlns="http://www.w3.org/2000/svg">
<g clip-path="url(#clip0_486_349)">
<path fill-rule="evenodd" clip-rule="evenodd" d="M51.9654 23.5014C52.7513 25.5571 53.3922 27.6533 53.6213 29.3905C54.4972 34.3213 54.2275 38.7164 52.7542 43.013C51.2324 47.3891 48.4919 51.241 44.8543 54.1166C42.3656 56.1839 39.5137 57.7714 36.444 58.7984C34.0863 59.5674 31.6246 59.9716 29.1444 59.9971C25.4397 60.048 21.7733 59.2434 18.4314 57.6461C15.4743 56.2738 12.854 54.2716 10.7549 51.7801C10.5988 51.5408 10.3623 51.365 10.088 51.2844C9.81364 51.2037 9.51947 51.2234 9.25841 51.34C6.4453 52.1999 3.12758 50.9202 1.57022 48.6618C-0.210443 46.0734 -0.338048 43.3836 1.11201 40.6331C1.78993 39.3232 2.90202 38.2886 4.25862 37.7059C4.45251 37.6468 4.61827 37.5194 4.72499 37.3473C4.83171 37.1753 4.8721 36.9703 4.83864 36.7707C4.74985 34.9093 4.90585 33.0442 5.30266 31.2232C5.99646 27.7015 7.48409 24.3836 9.65282 21.521C11.4618 19.0971 13.7277 17.0494 16.3231 15.4929C16.7291 15.2497 16.7378 15.0673 16.4652 14.688C14.438 11.8708 13.9972 8.83363 15.4124 5.61402C16.0829 4.17206 17.1185 2.9296 18.4169 2.00933C20.5282 0.419793 22.9498 -0.0579375 25.5077 -3.07839e-05C28.8747 0.0868292 31.9024 1.29129 34.7649 2.97348C38.8569 5.35923 42.2587 8.52094 45.2371 12.1604C48.0715 15.5582 50.3429 19.387 51.9654 23.5014ZM43.7407 44.5968C45.9008 42.4425 47.4947 39.7891 48.3809 36.872C49.3223 33.6986 49.443 30.3387 48.7318 27.1061C48.2012 24.5665 47.292 22.1207 46.0347 19.8504C43.3358 14.8067 39.4132 10.5192 34.6256 7.38017C32.2824 5.86591 29.7767 4.70778 26.9375 4.48484C24.4434 4.28796 22.1987 4.87282 20.5572 6.91692C19.3682 8.41091 19.0347 10.1481 19.6872 11.9258C20.4209 13.9526 21.9899 15.0557 24.1679 15.2729C24.2757 15.2977 24.3806 15.3336 24.4811 15.38C20.0671 16.9174 16.6943 19.6043 14.4032 23.6143C12.1121 27.6243 11.5553 31.9268 12.4804 36.4348C10.2937 36.4377 8.9916 37.7233 8.55368 39.3533C8.36514 40.1528 8.42829 40.9908 8.73452 41.753C9.04076 42.5153 9.57514 43.1646 10.2647 43.6124C11.8946 44.6228 13.5245 44.3941 15.3109 42.8856C15.3528 42.9039 15.3911 42.9293 15.424 42.9609C15.598 43.181 15.7691 43.401 15.9403 43.624C17.9056 46.18 20.5372 48.1472 23.5472 49.3104C27.7472 50.9564 32.4123 50.973 36.6238 49.3567C39.3088 48.2945 41.7353 46.6716 43.7407 44.5968ZM41.0875 34.7869C41.3351 34.7866 41.5803 34.835 41.8092 34.9293C42.2679 35.1236 42.6311 35.491 42.8196 35.9514C43.0081 36.4119 43.0067 36.9281 42.8156 37.3875C40.4781 43.0392 35.313 44.4868 31.7198 44.4868C31.0394 44.489 30.3601 44.4318 29.6897 44.316C29.1974 44.2277 28.7605 43.9478 28.4749 43.5378C28.1894 43.1279 28.0787 42.6215 28.1671 42.13C28.2556 41.6386 28.536 41.2023 28.9466 40.9173C29.1499 40.7761 29.3791 40.6763 29.621 40.6236C29.863 40.5709 30.113 40.5662 30.3567 40.61C30.6467 40.6592 36.9805 41.6726 39.347 35.9514C39.4414 35.7228 39.58 35.5151 39.7549 35.34C39.9297 35.165 40.1374 35.026 40.366 34.9311C40.5947 34.8362 40.8398 34.7872 41.0875 34.7869Z" fill="#12141A"/>
</g>
<defs>
<clipPath id="clip0_486_349">
<rect width="54" height="60" fill="white" transform="translate(0.120117)"/>
</clipPath>
</defs>
</svg>
